<svg xmlns="http://www.w3.org/2000/svg" height="195.97978" width="226.80804">
	<path fill="#fff" stroke="#f00" stroke-width="12" d="M 10.404021,6 113.40402,184.00001 216.40402,6 Z"/>
	<path fill="#f00" d="m 98.1462 25.5769 c 4.2187 -4.2655 9.3047 -6.3983 15.2578 -6.3984 c 5.9531 0.0001 11.039 2.1329 15.2578 6.3984 c 4.2187 4.2188 6.3281 9.3048 6.3281 15.2578 l 0 8.9297 c -0.0001 5.5782 -1.8282 10.3594 -5.4844 14.3438 c 3.6562 4.1251 5.4843 8.9297 5.4844 14.4141 l 0 19.8984 c -0.0001 5.9531 -2.1094 11.0391 -6.3281 15.2578 c -4.2188 4.2188 -9.3047 6.3281 -15.2578 6.3281 c -5.9531 0 -11.0391 -2.1094 -15.2578 -6.3281 c -4.2188 -4.2187 -6.3281 -9.3047 -6.3281 -15.2578 l 0 -19.8984 c -0 -5.4843 1.8047 -10.289 5.4141 -14.4141 c -3.6563 -4.0312 -5.4609 -8.8124 -5.4141 -14.3438 l 0 -8.9297 c -0 -5.953 2.1094 -11.039 6.3281 -15.2578 m 20.3203 10.125 c -1.3594 -1.4062 -3.0469 -2.1093 -5.0625 -2.1094 c -2.0156 0.0001 -3.7266 0.7032 -5.1328 2.1094 c -1.4063 1.4063 -2.1094 3.1173 -2.1094 5.1328 l 0 8.9297 c -0 2.1094 0.7031 3.8438 2.1094 5.2031 c 1.4062 1.3126 3.1172 1.9688 5.1328 1.9688 c 2.0156 0.0001 3.7031 -0.6562 5.0625 -1.9688 c 1.4062 -1.3593 2.1093 -3.0937 2.1094 -5.2031 l 0 -8.9297 c -0 -2.0156 -0.7032 -3.7265 -2.1094 -5.1328 m 0 37.7578 c -1.3594 -1.4062 -3.0469 -2.1093 -5.0625 -2.1094 c -2.0156 0.0001 -3.7266 0.7032 -5.1328 2.1094 c -1.4063 1.3594 -2.1094 3.0469 -2.1094 5.0625 l 0 19.8984 c -0 2.0156 0.7031 3.7266 2.1094 5.1328 c 1.4062 1.3594 3.1172 2.0391 5.1328 2.0391 c 2.0156 0 3.7031 -0.6797 5.0625 -2.0391 c 1.4062 -1.4062 2.1093 -3.1172 2.1094 -5.1328 l 0 -19.8984 c -0 -2.0156 -0.7032 -3.7031 -2.1094 -5.0625"/>
</svg>
